<svg version="1" xmlns="http://www.w3.org/2000/svg" width="346.667" height="346.667" viewBox="0 0 260.000000 260.000000"><path d="M118.2 24.4c-1.8 4.7-3.4 9.7-3.8 11.1-.3 1.4-1 2.5-1.6 2.5-.5 0-5.8-3.4-11.8-7.6-6.1-4.1-11-7.4-11-7.2 0 .2.7 4.1 1.5 8.8.8 4.7 1.5 9.3 1.5 10.4 0 1.7-.1 1.7-2.2.2-3.9-2.7-12.2-7.5-12.6-7.2-.1.2 1 2.5 2.6 5.2 1.5 2.7 3.8 7.5 5.1 10.6 1.3 3.2 2.4 5.8 2.5 5.8.2 0 3.9-1.6 8.4-3.5 11.7-5.1 22.1-7.5 34.7-8.2 9.9-.5 14.3-.1 27.5 2.3l3.6.6 1.3-7.7c.7-4.3 1.9-9.5 2.6-11.6.8-2.2 1-3.9.6-3.9-.5 0-3.4 2.7-6.4 6-3.1 3.3-5.8 6-6.1 6-.4 0-.6-2.8-.7-6.3 0-3.4-.4-8.1-.7-10.4l-.7-4.2-8.9 9.9c-4.9 5.5-9.2 10-9.5 10-.3 0-2.3-2.8-4.3-6.3-2.1-3.4-4.8-7.9-6.1-10.1l-2.4-3.9-3.1 8.7z"/><path d="M124.5 51.7C114.8 52.9 95 59.1 95 61c0 .4 1.1 1.1 2.4 1.4 2.2.5 9.2 7.4 8.4 8.2-.2.2-2.4-.4-4.8-1.2-12.9-4.4-19.1 4.9-14.5 21.9 1.1 4.2-2 2.4-5.1-2.9-2.3-3.9-2.6-5.3-2.2-11.3l.4-6.9-2.8 1.9c-7.1 5.1-21.7 23.1-24.3 30-.6 1.7 1.8 2.9 6.3 2.9 1.2 0 2.2.2 2.2.5s-1.5 2.6-3.4 5.2c-6.6 9.3-13.5 26.6-15.1 37.5l-.6 4.7 5.2-1.5c2.9-.9 6.3-2 7.7-2.5 1.4-.5 2.6-.8 2.8-.6.2.2-.1 4.4-.7 9.3-1.9 15.2 1.6 40.3 6.5 46.9 1.4 1.9 1.7 1.8 8.1-4.5 3.7-3.6 9.4-10.1 12.7-14.5 3.3-4.4 6.4-8.1 6.8-8.3 1.3-.5 3.2 9 3.7 18.8.3 6.1-.1 13.2-1.1 19.9-.9 5.8-1.6 11-1.6 11.8 0 1.7 6.3 4.8 13.7 6.7 8.6 2.3 24.1 2.1 33.9-.4 4.3-1.1 11.8-4 16.6-6.4 4.8-2.5 8.9-4.2 9.2-3.8.2.4.9 3.1 1.6 5.9l1.2 5.3 4.5-3.3c13.6-9.6 24.8-27.2 28.1-43.9l1.8-8.8 3.4 3.5c1.9 1.9 3.7 3.5 4.1 3.5.7 0 2.3-5.8 4-14.4 1.8-8.9 1.3-25.4-1-35.1-2.2-9.1-8-22.5-13.3-30.8-3.1-4.8-3.2-4.9-4.1-2.6-.8 2.4-.9 2.4-4.2-1.6-2.2-2.5-3.1-4.3-2.5-4.9 1.6-1.6 1.1-5.2-.8-6.9-1.6-1.5-2-1.5-4.7.2-2.9 1.7-3.1 1.7-6-.1-1.6-1-3.3-1.8-3.7-1.8-1.6 0 4.7 7.9 11 13.8 3.7 3.5 5.8 6.1 4.7 5.7-4.4-1.5-12.5-1.7-17.5-.5l-5.2 1.2-6.3-6.8c-6.5-7-7.9-10.6-5.3-13.2 2-2 .3-2.2-3.3-.4-3.4 1.8-3.4 1.8-9.4-1.2-3.3-1.6-7.4-2.9-9.1-2.9-3.4.1-10.3 3.3-12.3 5.7-2.1 2.5 5.7 5.8 15.4 6.4 7.3.4 8.4.8 12.2 3.9 2.3 1.9 5.3 4.9 6.6 6.6l2.4 3.2-14.1-.3c-7.7-.2-15.8-.8-17.9-1.3-5.1-1.3-11.4-7.2-12.8-11.9-1-3.3-1.7-3.9-4.7-4.5l-3.4-.6 2.8-3.1c1.6-1.6 4.6-3.9 6.7-5 3.8-1.9 3.9-2 2.1-4-1.8-1.9-1.8-2 .1-3.5 4.2-3.1 13.5-7.3 19.9-8.9l6.5-1.6 5.8 3.2c3.2 1.8 7.2 4.2 8.8 5.4 5.4 4 5.4 4 6.6-.9.6-2.5 1.3-4.5 1.6-4.5 2 0 13.6 7.7 23 15.2.6.5.1-2.1-1.3-5.9-1.3-3.7-2.4-7.5-2.4-8.5 0-3.5-13.7-11.7-24.2-14.6-3.6-1-3.7-1-2.7 1.5.5 1.3.9 3.4.9 4.6 0 1.9-.2 1.9-3.2-1-7.6-7.2-10.3-8.3-19.7-8.2-4.7.1-9.9.4-11.6.6zm47.2 67.5l6.3 3.3v13.2l-5.7 4.2c-7.4 5.5-14 8.8-18.3 9.3-3.4.3-3.5.2-8.6-9.2-2.8-5.2-4.9-9.9-4.6-10.3 1.3-2.4 20.1-13 24.2-13.7.3 0 3.3 1.4 6.7 3.2zm24.3 2c1.9 6.7 2.4 15.1 1 20.7-1.3 5.6-2.3 6.3-4.1 2.8-.7-1.2-2.7-3.9-4.5-6-3.1-3.3-3.4-4.3-3.4-9.6 0-5.9.1-6 4.3-9 2.3-1.7 4.5-3 4.8-3.1.3 0 1.2 1.9 1.9 4.2zm-8.7 29.2c4 6 2.9 13.1-3.1 21.1-4.9 6.5-6.2 6.8-6.2 1.3 0-2.4-.3-5.3-.6-6.5l-.6-2.2-5.2 2.8c-8.8 4.9-9 4.9-12.6-1.4-1.8-3.1-3.1-5.8-2.9-5.9.2-.2 2.9-1.4 5.9-2.8 3-1.4 7.3-3.9 9.5-5.6 3.2-2.5 5-3.1 9.1-3.1 4.4-.1 5.4.3 6.7 2.3z"/></svg>